<svg width="130" height="32" viewBox="0 0 130 32" fill="none" xmlns="http://www.w3.org/2000/svg">
  <path d="M9.078 4.534v17.59h3.304V4.535H9.078zM23.856 4.534v10.58l-8.16-10.58h-2.897v17.59h3.307V11.38l8.297 10.744h2.76V4.535h-3.307zM0 4.534v17.59h3.301V4.535H0zM59.298 4.534v17.59h3.307V15.01h6.647c2.94 0 5.338-2.4 5.338-5.333 0-2.935-2.399-5.143-5.338-5.143H59.298zm3.307 7.396V7.625h6.647c1.261 0 2.241 0.985 2.241 2.237 0 1.257-0.98 2.067-2.241 2.067h-6.647zM80.182 4.534H76.88v17.59h10.989v-3.092H80.182V4.534zM32.868 22.124l9.382-17.59h-3.634l-3.987 7.892-4.257-7.892h-3.995l6.423 11.48-3.268 6.11h3.336zM121.487 4.534h-3.307v17.59h3.307V4.534zM108.586 4.534h-3.301v17.59h3.301V4.534z" fill="#1865f2"/>
  <path d="M112.832 22.124V4.534h-3.3v17.59h3.3zM130 9.677V4.534h-14.273v3.091h10.966v2.052h-8.83c-0.982 0-1.776 0.8-1.776 1.77v8.678h13.913v-3.09h-10.608v-5.587h8.83c0.985 0 1.778-0.793 1.778-1.77z" fill="#1865f2"/>
  <path d="M95.392 4.534h-6.647c-2.938 0-5.338 2.207-5.338 5.142 0 2.933 2.4 5.334 5.338 5.334h6.647v-3.09h-6.647c-1.26 0-2.241-0.812-2.241-2.069 0-1.252 0.981-2.237 2.241-2.237h6.647v-3.08z" fill="#1865f2"/>
  <path d="M95.392 15.01h-6.647c-1.26 0-2.241 0.985-2.241 2.238 0 1.256 0.981 2.066 2.241 2.066h6.647v3.091h-6.647c-2.938 0-5.338-2.399-5.338-5.333 0-2.935 2.4-5.143 5.338-5.143h6.647v3.08z" fill="#1865f2"/>
</svg> 